# xmcd
#
# Track frame offsets:
#	150
#	18722
#	32914
#	49486
#	63743
#	80712
#	98040
#	112610
#	131848
#	150124
#	169097
#	186290
#	202554
#	218943
#
# Disc length: 3120 seconds
#
# Revision: 0
# Processed by: cddbd v1.5.2PL0 Copyright (c) Steve Scherf et al.
# Submitted via: audiograbber 1.83.01
#
DISCID=bc0c2e0e
DTITLE=Dedadur - Dedadur 9
DYEAR=2007
DGENRE=Dansktop
TTITLE0=Hvide rose fra Athen (2007)
TTITLE1=Skibet i flasken (2007)
TTITLE2=Alle mine kys (2007)
TTITLE3=Som en rejse er vort liv (2007)
TTITLE4=Den gamle færge (2007)
TTITLE5=Stjernetur (2007)
TTITLE6=Jeg glemmer aldrig den første gang jeg så dig (2007)
TTITLE7=Et hjerte der lever (2007)
TTITLE8=Der går en engel ved din side (2007)
TTITLE9=Min farfars gård (2007)
TTITLE10=Hvor kragerne vender (2007)
TTITLE11=Forelsket-forvirret (2007)
TTITLE12=Sig mig (2007)
TTITLE13=Tosomhed (2007)
EXTD=
EXTT0=
EXTT1=
EXTT2=
EXTT3=
EXTT4=
EXTT5=
EXTT6=
EXTT7=
EXTT8=
EXTT9=
EXTT10=
EXTT11=
EXTT12=
EXTT13=
PLAYORDER=
